<svg id="facebook" xmlns="http://www.w3.org/2000/svg" width="22.467" height="22.467" viewBox="0 0 22.467 22.467">
  <path id="Path_70" data-name="Path 70" d="M21.226,0H1.239A1.24,1.24,0,0,0,0,1.24V21.228a1.24,1.24,0,0,0,1.24,1.239H21.226a1.24,1.24,0,0,0,1.24-1.24h0V1.239A1.24,1.24,0,0,0,21.226,0Zm0,0" transform="translate(0 0)" fill="#4267b2"/>
  <path id="Path_71" data-name="Path 71" d="M213.428,96.4V87.71h2.929l.439-3.4h-3.368V82.143c0-.982.273-1.652,1.681-1.652h1.785V77.458a24,24,0,0,0-2.616-.134c-2.589,0-4.361,1.58-4.361,4.482v2.5H207v3.4h2.918V96.4Zm0,0" transform="translate(-197.917 -73.931)" fill="#fff"/>
</svg>
