<svg xmlns="http://www.w3.org/2000/svg" width="354.839" height="149.5" viewBox="0 0 354.839 149.5">
  <g id="Group_653" data-name="Group 653" transform="translate(-202 -209)">
    <path id="Path_265" data-name="Path 265" d="M270,0" transform="translate(263.5 358.5)" fill="none" stroke="#313133" stroke-width="1"/>
    <g id="logo" transform="translate(-1346.152 540.757)">
      <g id="Group_461" data-name="Group 461" transform="translate(1548.152 -331.757)">
        <g id="Group_1" data-name="Group 1" transform="translate(0 0)">
          <g id="Group_439" data-name="Group 439" transform="translate(35.845 39)">
            <path id="Path_133" data-name="Path 133" d="M163.784,180.283a45.03,45.03,0,0,0,28.6-10.226,45.216,45.216,0,1,0,44.109-77.494,5.154,5.154,0,0,0-4.827.7,2.131,2.131,0,0,0-.58-.119H229.8c-3.272,0-3.3,4.983-.121,5.118a5.14,5.14,0,0,0,3.285,3.978A34.919,34.919,0,1,1,199.576,162.6a44.936,44.936,0,0,0-.021-55.119A34.623,34.623,0,0,1,209,102.239a5.156,5.156,0,0,0,3.378-4.56c5.514-3.13,10.677-6.821,16.142-10.038,2.857-1.688.267-6.136-2.6-4.452-5.383,3.171-10.48,6.8-15.9,9.9a5.142,5.142,0,0,0-4.548-.531,45.025,45.025,0,0,0-13.09,7.513,45.03,45.03,0,0,0-13.1-7.513,5.129,5.129,0,0,0-5.279,1.108,2.367,2.367,0,0,0-1.5-.529c-3.308,0-3.319,5.106-.038,5.142a5.138,5.138,0,0,0,3.295,3.951,34.721,34.721,0,0,1,9.442,5.25,44.911,44.911,0,0,0-.023,55.109,34.866,34.866,0,0,1-56.331-27.537A35.052,35.052,0,0,1,151.8,102.232a5.116,5.116,0,0,0,3.342-4.308,94.3,94.3,0,0,0,14.154-9c2.635-1.959.068-6.428-2.593-4.446a96.27,96.27,0,0,1-13.648,8.744,5.166,5.166,0,0,0-4.784-.66,45.235,45.235,0,0,0,15.508,87.724Zm28.6-65.237a34.768,34.768,0,0,1,0,40,34.768,34.768,0,0,1,0-40Z" transform="translate(-118.563 -82.815)" fill="#cc1143"/>
          </g>
          <g id="Group_440" data-name="Group 440" transform="translate(190.315 29)">
            <path id="Path_134" data-name="Path 134" d="M213.516,78.064V152.37c0,13.935.742,24.08,4.475,31.365,2.566,5.009,9.337,8.619,15.732,11.024l-4.429.382c-25.315-6.075-26.481-19.5-26.481-43.216V78.064" transform="translate(-202.813 -78.064)" fill="#313133"/>
          </g>
          <path id="Path_135" data-name="Path 135" d="M94.227,385.9c9.61-4.71,18.485-10.552,18.485-24.492V306.02c0-16.955-3.768-21.476-13.187-22.985-1.132-.188-2.451-.563-2.451-2.072,0-.754.942-1.317,2.261-1.884,13.942-5.651,18.442-8.854,20.138-8.854,2.072,0,3.77,1.13,3.77,5.652v74.417c0,19.78-12.812,35.041-29.015,38.619Zm25.245-133.145a10.415,10.415,0,1,1-10.414-10.416,12.266,12.266,0,0,1,2.295.247C115.753,243.282,119.472,247.531,119.472,252.756Z" transform="translate(-94.227 -242.34)" fill="#313133"/>
        </g>
      </g>
    </g>
    <g id="Group_649" data-name="Group 649" transform="translate(411.065 236.107)">
      <path id="Path_1147" data-name="Path 1147" d="M139.075-474.372a2.888,2.888,0,0,0-.037,4.2c.781.632,1.6.706,8.216.706,4.313,0,7.807.149,8.439.409a6.679,6.679,0,0,1,3.42,3.272c.223.52,1.413,14.016,2.64,29.965,2.417,31.229,2.491,31.936,4.8,35.282,3.383,4.907,8.514,7.213,15.094,6.8,4.09-.26,75.769-8.662,78.632-9.22,5.911-1.152,11.971-6.357,13.942-11.86,1.561-4.424,9.889-36.546,9.7-37.4-.483-1.859-.669-1.859-21.972-3.086-11.042-.669-24.24-1.413-29.371-1.71-5.093-.3-19.481-1.153-31.973-1.859-22.27-1.3-22.679-1.3-23.608-.632a2.743,2.743,0,0,0-.3,4.09c.855.781,1.859.855,50.674,3.643,27.4,1.6,49.93,2.974,50.042,3.086.3.3-7.956,31.006-8.774,32.754a14.963,14.963,0,0,1-9.034,7.4c-.967.223-18.961,2.417-40.041,4.908-27.66,3.234-38.925,4.424-40.6,4.275-4.573-.409-7.919-3.011-9.071-7.064-.186-.632-1.338-14.09-2.565-29.965-1.338-16.953-2.491-29.594-2.788-30.709a10.239,10.239,0,0,0-5.651-6.543l-2.491-1.227-8.216-.112C140.488-475.078,139.893-475.041,139.075-474.372Z" transform="translate(-138.15 475.015)" fill="#cc1143"/>
      <path id="Path_1148" data-name="Path 1148" d="M174.521-205.791A11.335,11.335,0,0,0,172-202.96l-1.677,2.446-2.691.175c-6.605.454-12.162,5.8-12.581,12.162-.349,5.207,2.2,8.562,7.269,9.506,4.473.839,10.135-1.887,12.966-6.291l1.118-1.747h67.973l.245,1.118a9.787,9.787,0,0,0,4.473,6.081c5.452,2.866,13.874-.839,16.95-7.444,1.223-2.691,1.293-6.535.14-8.7a9.778,9.778,0,0,0-5.1-4.368,14.362,14.362,0,0,0-8.562.874,17.834,17.834,0,0,0-6.221,5.7l-.874,1.5-33.9-.07-33.934-.1-.419-1.643a10.789,10.789,0,0,0-1.293-2.971l-.874-1.328,1.5-2.272c1.538-2.272,1.817-3.355,1.188-4.543A2.635,2.635,0,0,0,174.521-205.791Zm-3.32,11.6a3,3,0,0,1,.909,2.516c0,4.473-5.382,8.842-9.541,7.723-1.817-.489-2.481-1.608-2.272-3.984.21-2.481,1.573-4.473,4.159-6.046A6.03,6.03,0,0,1,168.3-195.1C169.943-195.1,170.4-194.958,171.2-194.189Zm89.43-.21c4.089,3.215-2.726,11.952-8.178,10.484a3.606,3.606,0,0,1-2.761-3.075c0-2.691,2.237-6.011,4.963-7.374C256.648-195.342,259.409-195.342,260.632-194.4Z" transform="translate(-149.923 287.334)" fill="#cc1143"/>
    </g>
    <text id="kart" transform="translate(488.839 299)" fill="#313133" font-size="47" font-family="Roboto-Medium, New Order" font-weight="500" letter-spacing="-0.01em"><tspan x="-38.469" y="0">kart</tspan></text>
    <path id="Path_1154" data-name="Path 1154" d="M0,0H12.833" transform="translate(419.232 257.5)" fill="none" stroke="#cc1143" stroke-width="3"/>
    <line id="Line_2" data-name="Line 2" x2="20.448" transform="translate(411.5 264.5)" fill="none" stroke="#cc1143" stroke-width="3"/>
    <line id="Line_3" data-name="Line 3" x2="25.799" transform="translate(406.5 271.5)" fill="none" stroke="#cc1143" stroke-width="3"/>
  </g>
</svg>
