<svg id="Component_56_1" data-name="Component 56 – 1" xmlns="http://www.w3.org/2000/svg" xmlns:xlink="http://www.w3.org/1999/xlink" width="28" height="28" viewBox="0 0 28 28">
  <defs>
    <linearGradient id="linear-gradient" x1="-2.34" y1="-3.003" x2="-0.132" y2="-1.1" gradientUnits="objectBoundingBox">
      <stop offset="0" stop-color="#fccf61"/>
      <stop offset="0.081" stop-color="#fff"/>
      <stop offset="0.194" stop-color="#f4d271"/>
      <stop offset="0.264" stop-color="#d8a73b"/>
      <stop offset="0.322" stop-color="#bf8628"/>
      <stop offset="0.362" stop-color="#b2761f"/>
      <stop offset="0.378" stop-color="#b0741e"/>
      <stop offset="0.471" stop-color="#ad701d"/>
      <stop offset="0.513" stop-color="#b77d25"/>
      <stop offset="0.559" stop-color="#c69133"/>
      <stop offset="0.676" stop-color="#f4d15e"/>
      <stop offset="0.7" stop-color="#f1cd5c"/>
      <stop offset="0.719" stop-color="#e9c355"/>
      <stop offset="0.737" stop-color="#dbb24b"/>
      <stop offset="0.754" stop-color="#c79a3c"/>
      <stop offset="0.77" stop-color="#ae7b29"/>
      <stop offset="0.785" stop-color="#905613"/>
      <stop offset="0.806" stop-color="#965d17"/>
      <stop offset="0.839" stop-color="#a87325"/>
      <stop offset="0.878" stop-color="#c4973b"/>
      <stop offset="0.924" stop-color="#ecc859"/>
      <stop offset="0.938" stop-color="#fad964"/>
    </linearGradient>
    <linearGradient id="linear-gradient-2" x1="-0.15" y1="-0.329" x2="0.916" y2="1.03" gradientUnits="objectBoundingBox">
      <stop offset="0" stop-color="#d8a73b"/>
      <stop offset="0.084" stop-color="#bf8628"/>
      <stop offset="0.141" stop-color="#b2761f"/>
      <stop offset="0.153" stop-color="#b0741e"/>
      <stop offset="0.218" stop-color="#ad701d"/>
      <stop offset="0.301" stop-color="#b77d25"/>
      <stop offset="0.392" stop-color="#c69133"/>
      <stop offset="0.662" stop-color="#905613"/>
      <stop offset="0.882" stop-color="#905613"/>
      <stop offset="1" stop-color="#3f1400"/>
    </linearGradient>
    <linearGradient id="linear-gradient-3" x1="-2.755" y1="-3.924" x2="-1.877" y2="-2.826" gradientUnits="objectBoundingBox">
      <stop offset="0" stop-color="#fccf61"/>
      <stop offset="0.065" stop-color="#fff"/>
      <stop offset="0.194" stop-color="#f4d271"/>
      <stop offset="0.374" stop-color="#fff"/>
      <stop offset="0.492" stop-color="#fad964"/>
      <stop offset="0.649" stop-color="#f4d15e"/>
      <stop offset="0.764" stop-color="#c5973a"/>
      <stop offset="0.871" stop-color="#9e681e"/>
      <stop offset="0.924" stop-color="#905613"/>
    </linearGradient>
    <linearGradient id="linear-gradient-4" x1="0.606" y1="1.266" x2="0.421" y2="-0.066" xlink:href="#linear-gradient-2"/>
    <linearGradient id="linear-gradient-5" x1="-2.493" y1="-4.947" x2="-2.826" y2="-4.526" gradientUnits="objectBoundingBox">
      <stop offset="0" stop-color="#fff"/>
      <stop offset="0.081" stop-color="#ead8b6"/>
      <stop offset="0.168" stop-color="#d7b270"/>
      <stop offset="0.23" stop-color="#ca9a43"/>
      <stop offset="0.262" stop-color="#c69133"/>
      <stop offset="0.662" stop-color="#905613"/>
      <stop offset="0.727" stop-color="#884f11"/>
      <stop offset="0.828" stop-color="#723d0c"/>
      <stop offset="0.952" stop-color="#4e2003"/>
      <stop offset="1" stop-color="#3f1400"/>
    </linearGradient>
    <linearGradient id="linear-gradient-6" x1="-0.152" y1="-0.238" x2="0.932" y2="0.989" gradientUnits="objectBoundingBox">
      <stop offset="0" stop-color="#fccf61"/>
      <stop offset="0.342" stop-color="#d8a73b"/>
      <stop offset="0.49" stop-color="#ba8026"/>
      <stop offset="0.576" stop-color="#ad701d"/>
      <stop offset="0.672" stop-color="#c28d30"/>
      <stop offset="0.865" stop-color="#f4d15e"/>
      <stop offset="0.885" stop-color="#efcb5a"/>
      <stop offset="0.911" stop-color="#e1ba50"/>
      <stop offset="0.942" stop-color="#ca9e3f"/>
      <stop offset="0.975" stop-color="#ab7727"/>
      <stop offset="1" stop-color="#905613"/>
    </linearGradient>
    <linearGradient id="linear-gradient-7" x1="1.423" y1="0.981" x2="-2.17" y2="-0.628" gradientUnits="objectBoundingBox">
      <stop offset="0" stop-color="#fccf61"/>
      <stop offset="0.282" stop-color="#905613"/>
      <stop offset="0.372" stop-color="#965d17"/>
      <stop offset="0.511" stop-color="#a87325"/>
      <stop offset="0.683" stop-color="#c4973b"/>
      <stop offset="0.878" stop-color="#ecc859"/>
      <stop offset="0.938" stop-color="#fad964"/>
    </linearGradient>
    <linearGradient id="linear-gradient-8" x1="2.937" y1="1.545" x2="-0.656" y2="-0.064" xlink:href="#linear-gradient-7"/>
    <linearGradient id="linear-gradient-9" x1="0.5" y1="0.495" x2="0.5" y2="0.751" gradientUnits="objectBoundingBox">
      <stop offset="0.081" stop-color="#fff"/>
      <stop offset="0.362" stop-color="#a77224"/>
    </linearGradient>
    <linearGradient id="linear-gradient-10" y1="0.489" y2="0.73" xlink:href="#linear-gradient-9"/>
  </defs>
  <g id="Group_471" data-name="Group 471" transform="translate(-58 -210.438)">
    <path id="Path_147" data-name="Path 147" d="M17.132,31.9a14,14,0,1,1,14,14,14,14,0,0,1-14-14Z" transform="translate(40.868 192.543)" fill="url(#linear-gradient)"/>
    <path id="Path_148" data-name="Path 148" d="M31.133,45.9a14,14,0,1,0-14-14,14,14,0,0,0,14,14Zm0-27.79A13.791,13.791,0,1,1,17.342,31.9,13.791,13.791,0,0,1,31.133,18.11Z" transform="translate(40.868 192.538)" fill="url(#linear-gradient-2)"/>
    <path id="Path_151" data-name="Path 151" d="M19.046,81.789c-2.2,14.875,17.612,21.614,25.207,9.287C36.957,104.418,16.052,96.742,19.046,81.789Z" transform="translate(39.541 140.131)" fill="#fff"/>
    <path id="Path_152" data-name="Path 152" d="M19.046,81.789c-2.2,14.875,17.612,21.614,25.207,9.287C36.957,104.418,16.052,96.742,19.046,81.789Z" transform="translate(39.541 140.131)" fill="#fff" opacity="0.4"/>
    <path id="Path_153" data-name="Path 153" d="M43.912,22.944c6.591-5.653,14.4-4.2,19.579,1.421A13.414,13.414,0,0,1,65.283,39.48C72.665,26.16,54.964,12.432,43.912,22.944Z" transform="translate(18.802 191.46)" fill="#fff"/>
    <path id="Path_154" data-name="Path 154" d="M36.448,47.688A10.479,10.479,0,1,1,46.927,58.166,10.479,10.479,0,0,1,36.448,47.688Z" transform="translate(25.074 176.751)" fill="url(#linear-gradient-3)"/>
    <path id="Path_155" data-name="Path 155" d="M46.927,58.165A10.479,10.479,0,1,0,36.448,47.686,10.479,10.479,0,0,0,46.927,58.165Zm0-20.75a10.271,10.271,0,1,1-10.27,10.271,10.271,10.271,0,0,1,10.27-10.271Z" transform="translate(25.074 176.753)" fill="url(#linear-gradient-4)"/>
    <path id="Path_156" data-name="Path 156" d="M54.114,41.987C62,34.23,74.646,43.166,70.63,53.052,75.378,42.907,61.7,33.718,54.114,41.987Z" transform="translate(10.46 175.465)" opacity="0.8" fill="url(#linear-gradient-5)"/>
    <path id="Path_157" data-name="Path 157" d="M38.746,49.567a10.059,10.059,0,1,1,10.06,10.06,10.059,10.059,0,0,1-10.06-10.06Z" transform="translate(23.195 174.871)" fill="url(#linear-gradient-6)"/>
    <path id="Path_170" data-name="Path 170" d="M136.573,76.844a.359.359,0,0,1-.236-.63,11.963,11.963,0,0,0,2.689-14.748.359.359,0,1,1,.63-.343,12.68,12.68,0,0,1-2.849,15.633A.355.355,0,0,1,136.573,76.844Z" transform="translate(-56.667 157.243)" fill="url(#linear-gradient-7)"/>
    <path id="Path_171" data-name="Path 171" d="M29.042,76.843a.355.355,0,0,1-.235-.088,12.677,12.677,0,0,1-2.849-15.633.359.359,0,1,1,.631.343,11.96,11.96,0,0,0,2.689,14.748.359.359,0,0,1-.236.63Z" transform="translate(34.906 157.244)" fill="url(#linear-gradient-8)"/>
    <path id="Path_172" data-name="Path 172" d="M136.893,78.584l.488-.5c.146-.167.336-.354.526-.6.1-.12.2-.244.306-.381s.211-.282.324-.433.215-.318.328-.486.214-.353.326-.536.206-.385.313-.584l.3-.623c.087-.217.184-.435.267-.661s.169-.454.234-.691.144-.471.2-.714.111-.485.154-.731a12.587,12.587,0,0,0,.182-1.477c0-.244.021-.492.02-.726s0-.487-.018-.721l-.055-.683-.086-.657c-.077-.423-.152-.824-.255-1.186-.044-.182-.094-.357-.149-.519l-.145-.467c-.109-.287-.2-.539-.285-.743l-.281-.636.344.607c.1.2.213.444.346.724.109.29.261.609.363.978.123.363.22.767.32,1.2l.121.666c.032.23.052.467.079.708s.024.478.036.723,0,.5-.008.754a12.694,12.694,0,0,1-.176,1.522c-.047.253-.1.5-.165.751s-.134.492-.21.734a11.9,11.9,0,0,1-.545,1.379c-.109.214-.21.428-.324.629s-.228.4-.349.581-.235.365-.358.531-.24.328-.359.478l-.352.422c-.116.13-.233.247-.34.36-.21.228-.419.4-.577.559s-.3.253-.394.33S136.893,78.584,136.893,78.584Z" transform="translate(-57.223 154.875)" fill="url(#linear-gradient-9)"/>
    <path id="Path_173" data-name="Path 173" d="M28.063,77.6l-.149-.123c-.1-.08-.242-.195-.417-.351s-.388-.352-.611-.593c-.112-.12-.236-.244-.359-.383l-.372-.447c-.125-.16-.248-.332-.379-.507s-.248-.37-.379-.563-.242-.406-.368-.616-.226-.44-.343-.667a12.76,12.76,0,0,1-.576-1.461c-.08-.255-.161-.513-.222-.777s-.125-.529-.175-.8a13.488,13.488,0,0,1-.187-1.612c0-.269-.018-.529-.009-.8s.018-.513.038-.766.05-.506.083-.75l.128-.706c.1-.454.207-.882.337-1.267.108-.391.268-.729.383-1.037.14-.3.259-.558.365-.769l.363-.644-.3.673c-.089.217-.188.484-.3.787l-.155.495c-.059.172-.111.357-.159.551-.111.384-.191.809-.274,1.258q-.045.339-.092.7-.029.356-.059.725c-.014.248-.013.506-.02.764s.016.512.021.77a13.292,13.292,0,0,0,.195,1.567c.046.26.1.52.164.775s.134.509.21.758.169.491.248.734.191.471.284.7l.315.661c.113.21.216.422.332.618s.227.39.346.568.234.353.35.515l.344.459c.111.144.223.276.325.4.2.255.405.454.559.631Z" transform="translate(35.651 156.403)" fill="url(#linear-gradient-10)"/>
  </g>
  <path id="Path_174" data-name="Path 174" d="M94.227,258.35a2.682,2.682,0,0,0,1.78-2.731v-6.177c0-1.891-.424-2.4-1.483-2.563-.127-.021-.276-.063-.276-.231,0-.084.106-.147.254-.21a22.436,22.436,0,0,1,2.563-.987c.233,0,.424.126.424.63v8.3a4.3,4.3,0,0,1-3.263,4.307ZM97.066,243.5a1.171,1.171,0,1,1-1.171-1.162,1.391,1.391,0,0,1,.258.028A1.137,1.137,0,0,1,97.066,243.5Z" transform="translate(-81.858 -236.513)" fill="#583600" stroke="rgba(0,0,0,0)" stroke-width="1"/>
</svg>
