<svg xmlns="http://www.w3.org/2000/svg" width="25" height="25" viewBox="0 0 25 25">
  <g id="Component_55_1" data-name="Component 55 – 1" transform="translate(0.5 0.5)">
    <path id="ic_monetization_on_24px" d="M14,2A12,12,0,1,0,26,14,12,12,0,0,0,14,2Z" transform="translate(-2 -2)" fill="none" stroke="#757575" stroke-width="1"/>
    <path id="Path_135" data-name="Path 135" d="M94.227,258.56a2.717,2.717,0,0,0,1.8-2.767v-6.258c0-1.916-.429-2.426-1.5-2.6-.129-.021-.279-.064-.279-.234,0-.085.107-.149.258-.213a22.73,22.73,0,0,1,2.6-1c.236,0,.429.128.429.639v8.408a4.353,4.353,0,0,1-3.305,4.363ZM97.1,243.517a1.187,1.187,0,1,1-1.186-1.177,1.408,1.408,0,0,1,.261.028A1.151,1.151,0,0,1,97.1,243.517Z" transform="translate(-83.727 -237.84)" fill="#757575" stroke="rgba(0,0,0,0)" stroke-width="1"/>
  </g>
</svg>
