<?xml version="1.0" standalone="no"?>
<!DOCTYPE svg PUBLIC "-//W3C//DTD SVG 20010904//EN"
 "http://www.w3.org/TR/2001/REC-SVG-20010904/DTD/svg10.dtd">
<svg version="1.0" xmlns="http://www.w3.org/2000/svg"
 width="512.000000pt" height="512.000000pt" viewBox="0 0 512.000000 512.000000"
 preserveAspectRatio="xMidYMid meet">

<g transform="translate(0.000000,512.000000) scale(0.100000,-0.100000)"
fill="#000000" stroke="none">
<path d="M159 3986 c-56 -20 -96 -53 -126 -104 l-28 -47 0 -440 0 -440 27 -45
c14 -25 53 -69 86 -97 85 -75 117 -142 117 -248 0 -111 -29 -170 -133 -273
-57 -56 -81 -88 -90 -118 -17 -57 -17 -830 0 -886 17 -56 79 -123 136 -145 45
-17 146 -18 2412 -18 1965 0 2371 2 2403 14 55 19 106 68 133 126 24 50 24 52
24 459 0 288 -4 421 -12 450 -9 30 -33 62 -90 118 -104 103 -133 162 -133 273
0 106 32 173 117 248 33 28 72 72 86 97 l27 45 0 441 0 441 -30 49 c-19 30
-49 60 -79 79 l-49 30 -2381 2 c-1929 2 -2388 0 -2417 -11z m4782 -165 l29
-29 0 -392 c0 -267 -4 -398 -11 -412 -6 -11 -39 -47 -74 -79 -161 -151 -200
-380 -97 -573 14 -28 62 -86 104 -128 l78 -77 0 -396 c0 -265 -4 -403 -11
-417 -27 -50 94 -48 -2399 -48 -2493 0 -2372 -2 -2399 48 -7 14 -11 152 -11
417 l0 396 78 77 c42 42 90 100 104 128 103 193 64 422 -97 573 -35 32 -68 68
-74 79 -7 14 -11 145 -11 412 l0 392 29 29 29 29 2352 0 2352 0 29 -29z"/>
<path d="M2514 3657 c-25 -22 -28 -31 -32 -108 -6 -140 30 -200 106 -173 39
14 55 68 50 173 -4 77 -7 86 -32 108 -15 12 -36 23 -46 23 -10 0 -31 -11 -46
-23z"/>
<path d="M960 3508 c-19 -7 -58 -35 -86 -63 -79 -78 -93 -167 -42 -273 22 -46
87 -101 202 -170 l70 -42 -165 0 c-186 0 -227 -11 -270 -71 l-24 -34 -3 -519
c-2 -509 -2 -519 18 -562 12 -24 36 -52 54 -64 33 -20 47 -20 642 -20 590 0
610 1 642 20 18 11 41 34 52 52 20 32 20 48 18 568 -3 517 -4 536 -23 562 -43
56 -66 63 -253 68 l-173 5 78 47 c158 94 212 163 213 269 0 160 -136 266 -292
229 -43 -11 -63 -24 -108 -69 -31 -31 -78 -93 -104 -138 l-48 -82 -48 79 c-66
110 -105 156 -156 186 -51 30 -139 40 -194 22z m114 -149 c32 -15 89 -96 156
-222 l53 -99 -52 26 c-109 56 -220 127 -250 161 -39 45 -40 78 -2 116 32 31
55 36 95 18z m645 -4 c44 -22 56 -80 26 -122 -26 -37 -305 -207 -305 -186 0
13 86 169 125 228 61 92 97 110 154 80z m201 -670 l0 -125 -51 0 c-43 0 -55
-5 -81 -30 -24 -25 -29 -36 -24 -58 11 -43 41 -62 102 -62 l54 0 0 -285 0
-285 -565 0 -565 0 0 285 0 285 380 0 c367 0 381 1 400 20 25 25 26 71 1 101
l-19 24 -381 3 -381 3 0 124 0 125 565 0 565 0 0 -125z"/>
<path d="M3280 3347 c-93 -26 -163 -88 -205 -180 -24 -51 -27 -69 -23 -135 8
-171 126 -292 293 -300 133 -7 238 55 297 175 27 56 32 77 32 137 0 204 -200
358 -394 303z m143 -151 c127 -54 137 -235 16 -296 -112 -58 -239 19 -239 145
0 66 29 112 90 143 51 25 87 28 133 8z"/>
<path d="M4292 3353 c-7 -3 -271 -337 -587 -744 -614 -789 -603 -771 -554
-820 14 -14 30 -19 57 -17 36 3 48 17 555 668 658 844 637 817 637 846 0 48
-61 86 -108 67z"/>
<path d="M2514 3177 c-25 -22 -28 -31 -32 -108 -6 -140 30 -200 106 -173 39
14 55 68 50 173 -4 77 -7 86 -32 108 -15 12 -36 23 -46 23 -10 0 -31 -11 -46
-23z"/>
<path d="M2514 2697 c-25 -22 -28 -31 -32 -108 -6 -140 30 -200 106 -173 39
14 55 68 50 173 -4 77 -7 86 -32 108 -15 12 -36 23 -46 23 -10 0 -31 -11 -46
-23z"/>
<path d="M4089 2387 c-154 -43 -245 -167 -237 -322 9 -172 141 -295 316 -295
121 0 234 75 285 189 32 70 30 179 -4 251 -66 138 -223 215 -360 177z m136
-156 c75 -33 116 -107 101 -178 -33 -150 -217 -183 -303 -54 -43 63 -21 174
43 216 58 38 102 42 159 16z"/>
<path d="M2535 2230 c-43 -17 -50 -38 -50 -152 0 -103 1 -111 24 -129 13 -10
36 -19 51 -19 15 0 38 9 51 19 23 18 24 26 24 130 0 97 -2 113 -20 130 -25 24
-54 32 -80 21z"/>
<path d="M2504 1729 c-16 -18 -19 -37 -19 -129 0 -127 12 -150 75 -150 63 0
75 23 75 150 0 127 -12 150 -75 150 -25 0 -43 -7 -56 -21z"/>
</g>
</svg>
