<svg xmlns="http://www.w3.org/2000/svg" xmlns:xlink="http://www.w3.org/1999/xlink" width="24" height="24" viewBox="0 0 24 24"><defs><clipPath id="b"><rect width="24" height="24"/></clipPath></defs><g id="a" clip-path="url(#b)"><g transform="translate(0.192 -27.251)"><g transform="translate(0 29.251)"><path d="M2.546,34.347A2.548,2.548,0,1,0,0,31.793a2.548,2.548,0,0,0,2.546,2.554Zm0-3.913a1.363,1.363,0,1,1-1.363,1.359,1.363,1.363,0,0,1,1.363-1.359Z" transform="translate(0 -29.251)" fill="#757575"/><path d="M2.546,197.242A2.546,2.546,0,1,0,0,194.693,2.546,2.546,0,0,0,2.546,197.242Zm0-3.9a1.363,1.363,0,1,1-1.363,1.354,1.363,1.363,0,0,1,1.363-1.354Z" transform="translate(0 -184.281)" fill="#757575"/><path d="M2.546,360.142A2.546,2.546,0,1,0,0,357.593a2.546,2.546,0,0,0,2.546,2.549Zm0-3.913a1.363,1.363,0,1,1-1.363,1.364,1.363,1.363,0,0,1,1.363-1.364Z" transform="translate(0 -339.311)" fill="#757575"/><path d="M164.191,70.838h14.566a.591.591,0,1,0,0-1.183H164.191a.591.591,0,0,0,0,1.183Z" transform="translate(-155.696 -67.698)" fill="#757575"/><path d="M164.191,233.738h14.566a.591.591,0,0,0,0-1.183H164.191a.591.591,0,0,0,0,1.183Z" transform="translate(-155.696 -222.728)" fill="#757575"/><path d="M164.191,396.538h14.566a.591.591,0,0,0,0-1.183H164.191a.591.591,0,0,0,0,1.183Z" transform="translate(-155.696 -377.663)" fill="#757575"/></g></g></g></svg>