<svg xmlns="http://www.w3.org/2000/svg" xmlns:xlink="http://www.w3.org/1999/xlink" width="24" height="24" viewBox="0 0 24 24"><defs><clipPath id="b"><rect width="24" height="24"/></clipPath></defs><g id="a" clip-path="url(#b)"><g transform="translate(-639.5 -239.587)"><path d="M0,0V2.464H14.783" transform="translate(646.66 254.051)" fill="none" stroke="#757575" stroke-linejoin="round" stroke-miterlimit="10" stroke-width="1"/><path d="M3.7,3.7,2.464,0H0" transform="translate(640.5 240.5)" fill="none" stroke="#757575" stroke-linejoin="round" stroke-miterlimit="10" stroke-width="1"/><path d="M1.848,0A1.848,1.848,0,1,0,3.7,1.848,1.848,1.848,0,0,0,1.848,0Z" transform="translate(658.979 258.979)" fill="none" stroke="#757575" stroke-linejoin="round" stroke-miterlimit="10" stroke-width="1"/><path d="M1.848,0A1.848,1.848,0,1,0,3.7,1.848,1.848,1.848,0,0,0,1.848,0Z" transform="translate(644.196 258.979)" fill="none" stroke="#757575" stroke-linejoin="round" stroke-miterlimit="10" stroke-width="1"/><path d="M17.247,7.392,2.464,9.856,0,0H18.479Z" transform="translate(644.196 244.196)" fill="none" stroke="#757575" stroke-linejoin="round" stroke-miterlimit="10" stroke-width="1"/></g></g></svg>