<svg xmlns="http://www.w3.org/2000/svg" xmlns:xlink="http://www.w3.org/1999/xlink" width="24" height="24" viewBox="0 0 24 24"><defs><clipPath id="b"><rect width="24" height="24"/></clipPath></defs><g id="a" clip-path="url(#b)"><g transform="translate(3.012 1)"><path d="M222.917,154.7a.519.519,0,0,0-.519.519v9.8a.519.519,0,0,0,1.037,0v-9.8a.519.519,0,0,0-.518-.522Zm0,0" transform="translate(-211.053 -146.785)" fill="#757575"/><path d="M104.917,154.7a.519.519,0,0,0-.519.519v9.8a.519.519,0,0,0,1.037,0v-9.8a.519.519,0,0,0-.518-.522Zm0,0" transform="translate(-99.074 -146.785)" fill="#757575"/><path d="M1.447,6.591V19.369A2.886,2.886,0,0,0,2.2,21.342a2.5,2.5,0,0,0,1.826.8h9.664a2.5,2.5,0,0,0,1.826-.8,2.886,2.886,0,0,0,.749-1.974V6.591a1.984,1.984,0,0,0-.5-3.9H13.145V2.047a2.053,2.053,0,0,0-.59-1.454A1.991,1.991,0,0,0,11.121,0H6.585A1.991,1.991,0,0,0,5.152.593a2.053,2.053,0,0,0-.589,1.454V2.7H1.947a1.984,1.984,0,0,0-.5,3.9ZM13.686,21.106H4.021a1.633,1.633,0,0,1-1.553-1.737V6.637h12.77V19.369a1.633,1.633,0,0,1-1.553,1.737ZM5.584,2.047a1.006,1.006,0,0,1,.29-.718.974.974,0,0,1,.709-.291h4.536a.974.974,0,0,1,.709.291,1.006,1.006,0,0,1,.29.72V2.7H5.584ZM1.947,3.733H15.76a.934.934,0,0,1,0,1.867H1.947a.934.934,0,1,1,0-1.867Zm0,0" transform="translate(0 0)" fill="#757575"/><path d="M163.917,154.7a.519.519,0,0,0-.519.519v9.8a.519.519,0,0,0,1.037,0v-9.8a.519.519,0,0,0-.518-.522Zm0,0" transform="translate(-155.063 -146.785)" fill="#757575"/></g></g></svg>