<svg xmlns="http://www.w3.org/2000/svg" xmlns:xlink="http://www.w3.org/1999/xlink" width="24" height="24" viewBox="0 0 24 24"><defs><clipPath id="b"><rect width="24" height="24"/></clipPath></defs><g id="a" clip-path="url(#b)"><g transform="translate(-24 1)"><g transform="translate(26)"><path d="M221.34,285.226a.435.435,0,0,0-.581.2l-2.392,4.926a.435.435,0,0,0,.782.38l2.392-4.926a.435.435,0,0,0-.2-.581Z" transform="translate(-209.96 -272.782)" fill="#757575"/><path d="M177.587,271.62a1.391,1.391,0,1,0,0,1.968,1.391,1.391,0,0,0,0-1.968Zm-.615,1.353a.522.522,0,1,1,0-.739.522.522,0,0,1,0,.739Z" transform="translate(-168.725 -259.42)" fill="#757575"/><path d="M274.2,368.792a1.391,1.391,0,1,0,.984.408A1.391,1.391,0,0,0,274.2,368.792Zm.369,1.761a.518.518,0,1,1,.155-.369.522.522,0,0,1-.155.369Z" transform="translate(-262.074 -352.756)" fill="#757575"/><path d="M44.792,3.827H40.86a1.871,1.871,0,0,0,.3-1.015V1.884A1.886,1.886,0,0,0,39.278,0,2.381,2.381,0,0,0,37.2,1.219L36,3.369l-1.2-2.15A2.38,2.38,0,0,0,32.724,0,1.886,1.886,0,0,0,30.84,1.884v.928a1.871,1.871,0,0,0,.3,1.015H27.21A1.211,1.211,0,0,0,26,5.036V8.008a1.211,1.211,0,0,0,.869,1.161V20.958a1.306,1.306,0,0,0,1.3,1.3H43.827a1.306,1.306,0,0,0,1.3-1.3V9.169A1.211,1.211,0,0,0,46,8.009V5.036a1.211,1.211,0,0,0-1.208-1.209ZM37.955,1.644A1.511,1.511,0,0,1,39.278.869a1.016,1.016,0,0,1,1.015,1.015v.928a1.016,1.016,0,0,1-1.015,1.015H36.742Zm-.482,6.7H34.523V4.693h2.956ZM31.709,2.812V1.884A1.016,1.016,0,0,1,32.724.869a1.511,1.511,0,0,1,1.317.773L35.26,3.826H32.724a1.016,1.016,0,0,1-1.015-1.013Zm-4.84,2.223A.335.335,0,0,1,27.2,4.7h6.444V8.349H27.21a.335.335,0,0,1-.335-.335ZM45.132,8.008a.335.335,0,0,1-.335.335H43.523a.435.435,0,0,0,0,.869h.74V20.958a.436.436,0,0,1-.435.435H28.174a.436.436,0,0,1-.435-.435V9.218H39.61a.435.435,0,1,0,0-.869H38.349V4.693h6.444a.335.335,0,0,1,.335.335Z" transform="translate(-26)" fill="#757575"/><path d="M374.435,192a.435.435,0,1,0,.307.127.435.435,0,0,0-.307-.127Z" transform="translate(-358.868 -183.651)" fill="#757575"/></g></g></g></svg>