<svg xmlns="http://www.w3.org/2000/svg" xmlns:xlink="http://www.w3.org/1999/xlink" width="24" height="24" viewBox="0 0 24 24"><defs><clipPath id="b"><rect width="24" height="24"/></clipPath></defs><g id="a" clip-path="url(#b)"><g transform="translate(-49.5 -28.5)"><g transform="translate(51.5 29.5)"><path d="M10.15,0,0,9.843v12.3H7.613V17.225a2.538,2.538,0,0,1,5.075,0v4.921H20.3V9.843Z" transform="translate(0)" fill="none"/><path d="M10.15,1.285.923,10.233v10.99H6.69v-4a3.461,3.461,0,0,1,6.92,0v4h5.767V10.233L10.15,1.285M10.15,0,20.3,9.842v12.3H12.688V17.224a2.539,2.539,0,0,0-5.075,0v4.921H0V9.842Z" transform="translate(0)" fill="#757575"/></g></g></g></svg>