<svg xmlns="http://www.w3.org/2000/svg" xmlns:xlink="http://www.w3.org/1999/xlink" width="24" height="24" viewBox="0 0 24 24"><defs><clipPath id="b"><rect width="24" height="24"/></clipPath></defs><g id="a" clip-path="url(#b)"><g transform="translate(-739.45 -238.443)"><path d="M21.9,20.075a13.056,13.056,0,0,1-3.65-9.085v-.953A7.514,7.514,0,0,0,13.342,2.93a2.659,2.659,0,0,0,.041-.422,2.435,2.435,0,1,0-4.867,0,2.659,2.659,0,0,0,.041.422A7.512,7.512,0,0,0,3.65,10.037v.951A13.056,13.056,0,0,1,0,20.075Z" transform="translate(740.5 239.5)" fill="none" stroke="#757575" stroke-linejoin="round" stroke-miterlimit="10" stroke-width="1"/><path d="M0,0H0A1.831,1.831,0,0,0,1.825,1.825,1.831,1.831,0,0,0,3.65,0" transform="translate(749.625 259.575)" fill="none" stroke="#757575" stroke-linejoin="round" stroke-miterlimit="10" stroke-width="1"/></g></g></svg>