<svg xmlns="http://www.w3.org/2000/svg" xmlns:xlink="http://www.w3.org/1999/xlink" width="24" height="24" viewBox="0 0 24 24"><defs><clipPath id="b"><rect width="24" height="24"/></clipPath></defs><g id="a" clip-path="url(#b)"><path d="M1.534,16.659H2.591a2.376,2.376,0,0,0,4.7,0h7.226a2.376,2.376,0,0,0,4.7,0h1.057a1.558,1.558,0,0,0,1.534-1.575V9.774a.03.03,0,0,0,0-.019c0-.006,0-.012-.005-.019L21.8,9.716,21.792,9.7l-.009-.018-.009-.017-.01-.017-.012-.018-.011-.015L21.727,9.6l-.006-.008L18.784,6.311a1.521,1.521,0,0,0-1.131-.51h-5.3V1.574A1.558,1.558,0,0,0,10.821,0H1.534A1.558,1.558,0,0,0,0,1.574v13.51a1.558,1.558,0,0,0,1.534,1.574Zm3.409,1.224a1.636,1.636,0,1,1,1.591-1.636,1.612,1.612,0,0,1-1.591,1.636Zm11.931,0a1.636,1.636,0,1,1,1.591-1.636,1.612,1.612,0,0,1-1.592,1.636Zm4.147-2.8a.749.749,0,0,1-.739.758H19.225a2.376,2.376,0,0,0-4.7,0H12.356V10.271H21.02ZM17.655,6.623a.732.732,0,0,1,.545.245l2.315,2.588H12.356V6.623ZM.8,1.574A.75.75,0,0,1,1.534.816h9.287a.75.75,0,0,1,.739.758V15.842H7.3a2.376,2.376,0,0,0-4.7,0H1.534A.749.749,0,0,1,.8,15.084Zm0,0" transform="translate(1 3)" fill="#757575"/></g></svg>