<svg xmlns="http://www.w3.org/2000/svg" xmlns:xlink="http://www.w3.org/1999/xlink" width="24" height="24" viewBox="0 0 24 24"><defs><clipPath id="b"><rect width="24" height="24"/></clipPath></defs><g id="a" clip-path="url(#b)"><g transform="translate(-839.3 -239.3)"><path d="M2.7,0A2.7,2.7,0,1,0,5.4,2.7,2.7,2.7,0,0,0,2.7,0Z" transform="translate(848.6 248.6)" fill="none" stroke="#757575" stroke-linejoin="round" stroke-miterlimit="10" stroke-width="1"/><path d="M18.847,13.2a8.314,8.314,0,0,1-.658,1.6l1.944,1.944L16.74,20.134,14.8,18.19a8.314,8.314,0,0,1-1.6.658V21.6H8.4V18.847a8.314,8.314,0,0,1-1.6-.658L4.86,20.134,1.466,16.74,3.41,14.8a8.314,8.314,0,0,1-.658-1.6H0V8.4H2.753A8.314,8.314,0,0,1,3.41,6.8L1.466,4.86,4.86,1.466,6.8,3.41a8.4,8.4,0,0,1,1.6-.659V0h4.8V2.751a8.4,8.4,0,0,1,1.6.659l1.944-1.944L20.134,4.86,18.19,6.8a8.314,8.314,0,0,1,.658,1.6H21.6v4.8Z" transform="translate(840.5 240.5)" fill="none" stroke="#757575" stroke-linejoin="round" stroke-miterlimit="10" stroke-width="1"/></g></g></svg>