<svg xmlns="http://www.w3.org/2000/svg" xmlns:xlink="http://www.w3.org/1999/xlink" width="24" height="24" viewBox="0 0 24 24"><defs><clipPath id="b"><rect width="24" height="24"/></clipPath></defs><g id="a" clip-path="url(#b)"><g transform="translate(-94.889 -79)"><g transform="translate(95.889 99.08) rotate(-90)"><path d="M.5,5.009H14.438L10.269.855a.5.5,0,1,1,.708-.708L15.935,5.1a.506.506,0,0,1,0,.708l-4.958,4.958a.5.5,0,0,1-.708-.708l4.17-4.053H.5a.5.5,0,0,1,0-1Z" transform="translate(0 0)" fill="#757575"/></g><g transform="translate(118.421 85) rotate(90)"><path d="M.5,5.91H14.438l-4.17,4.154a.5.5,0,1,0,.708.708l4.958-4.958a.506.506,0,0,0,0-.708L10.977.147a.5.5,0,1,0-.708.708l4.17,4.053H.5a.5.5,0,0,0,0,1Z" transform="translate(0 0)" fill="#757575"/></g></g></g></svg>