<svg xmlns="http://www.w3.org/2000/svg" xmlns:xlink="http://www.w3.org/1999/xlink" width="24" height="24" viewBox="0 0 24 24"><defs><clipPath id="b"><rect width="24" height="24"/></clipPath></defs><g id="a" clip-path="url(#b)"><g transform="translate(-24.47 0.958)"><g transform="translate(26.48)"><path d="M44.306,7.868a7.826,7.826,0,0,0-15.652,0,2.369,2.369,0,0,0-2.174,2.579v4.109a2.433,2.433,0,0,0,2.609,2.623H30.35a.436.436,0,0,0,.435-.437V8.279a.436.436,0,0,0-.435-.437h-.826a6.957,6.957,0,1,1,13.913,0H42.61a.436.436,0,0,0-.435.437v8.449a.436.436,0,0,0,.435.437h.826c-.122,3-1.557,3.707-4.422,3.833v-.293a.872.872,0,0,0-.87-.874H35.41a.872.872,0,0,0-.87.874v1.421a.872.872,0,0,0,.87.874h2.743a.872.872,0,0,0,.87-.874v-.254c2.757-.127,5.139-.7,5.283-4.734A2.369,2.369,0,0,0,46.48,14.56V10.451a2.365,2.365,0,0,0-2.174-2.583Zm-14.391.817V16.29h-.848a1.582,1.582,0,0,1-1.739-1.748V10.433a1.584,1.584,0,0,1,1.739-1.748Zm8.239,12.781v.664H35.41V20.71h2.743Zm7.457-6.91a1.584,1.584,0,0,1-1.74,1.744h-.826V8.716h.848a1.582,1.582,0,0,1,1.739,1.748Z" transform="translate(-26.48)" fill="#757575"/></g></g></g></svg>