<svg xmlns="http://www.w3.org/2000/svg" xmlns:xlink="http://www.w3.org/1999/xlink" width="24" height="24" viewBox="0 0 24 24"><defs><clipPath id="b"><rect width="24" height="24"/></clipPath></defs><g id="a" clip-path="url(#b)"><g transform="translate(-539.485 -239.884)"><path d="M9.868,5.551V4.934A4.934,4.934,0,1,0,0,4.934v.617a8.634,8.634,0,0,0,3.454,6.907,2.467,2.467,0,0,0,2.96,0A8.634,8.634,0,0,0,9.868,5.551Z" transform="translate(546.434 241.5)" fill="none" stroke="#757575" stroke-linejoin="round" stroke-miterlimit="10" stroke-width="1"/><path d="M12.912,0l.381,1.525a2.467,2.467,0,0,0,1.29,1.6l1.888.944a4.934,4.934,0,0,1,2.58,3.217l.683,2.738H0L.683,7.295a4.934,4.934,0,0,1,2.58-3.217l1.888-.944a2.467,2.467,0,0,0,1.29-1.6L6.823,0" transform="translate(541.5 252.442)" fill="none" stroke="#757575" stroke-linejoin="round" stroke-miterlimit="10" stroke-width="1"/></g></g></svg>