<svg xmlns="http://www.w3.org/2000/svg" xmlns:xlink="http://www.w3.org/1999/xlink" width="24" height="24" viewBox="0 0 24 24"><defs><clipPath id="b"><rect width="24" height="24"/></clipPath></defs><g id="a" clip-path="url(#b)"><g transform="translate(1 -100.662)"><g transform="translate(0 106.662)"><path d="M21.919,112.818c-.173-.252-4.337-6.156-10.919-6.156-5.648,0-10.68,5.87-10.892,6.121a.46.46,0,0,0,0,.592C.32,113.625,5.353,119.5,11,119.5s10.68-5.87,10.892-6.121a.458.458,0,0,0,.027-.561ZM11,118.579c-4.527,0-8.832-4.318-9.926-5.5,1.092-1.183,5.392-5.5,9.926-5.5,5.3,0,9.037,4.311,9.95,5.475C19.9,114.2,15.566,118.579,11,118.579Z" transform="translate(0 -106.662)" fill="#757575"/></g><g transform="translate(7.183 109.262)"><path d="M174.479,170.662a3.817,3.817,0,1,0,3.817,3.817,3.817,3.817,0,0,0-3.817-3.817Zm0,6.68a2.863,2.863,0,1,1,2.863-2.863,2.863,2.863,0,0,1-2.863,2.863Z" transform="translate(-170.662 -170.662)" fill="#757575"/></g></g></g></svg>