<svg xmlns="http://www.w3.org/2000/svg" xmlns:xlink="http://www.w3.org/1999/xlink" width="24" height="24" viewBox="0 0 24 24"><defs><clipPath id="b"><rect width="24" height="24"/></clipPath></defs><g id="a" clip-path="url(#b)"><g transform="translate(-143.438 -126.5)"><g transform="translate(144.5 128.5)"><path d="M10.938,21S0,14.823,0,6.177C0,3.706,1.215,0,4.862,0a8.827,8.827,0,0,1,6.076,2.779A8.827,8.827,0,0,1,17.014,0c3.646,0,4.861,3.706,4.861,6.177C21.875,14.823,10.938,21,10.938,21Z" transform="translate(0)" fill="none"/><path d="M10.937,19.979a30.818,30.818,0,0,0,4.891-3.806,20.232,20.232,0,0,0,3.588-4.484A11.124,11.124,0,0,0,21,6.176a7.068,7.068,0,0,0-.934-3.556A3.4,3.4,0,0,0,17.014.875,8.009,8.009,0,0,0,11.6,3.355a.875.875,0,0,1-1.317,0A7.932,7.932,0,0,0,4.861.875,3.4,3.4,0,0,0,1.809,2.62,7.068,7.068,0,0,0,.875,6.176a11.124,11.124,0,0,0,1.584,5.512,20.233,20.233,0,0,0,3.588,4.484,30.82,30.82,0,0,0,4.891,3.806m0,1.021S0,14.824,0,6.176C0,3.706,1.215,0,4.861,0a8.827,8.827,0,0,1,6.076,2.779A8.827,8.827,0,0,1,17.014,0c3.646,0,4.861,3.706,4.861,6.176C21.875,14.824,10.937,21,10.937,21Z" transform="translate(0 0)" fill="#757575"/></g></g></g></svg>